<svg xmlns="http://www.w3.org/2000/svg" width="192" height="192" viewBox="0 0 192 192">
  <defs>
    <linearGradient id="bg" x1="0" y1="0" x2="1" y2="1">
      <stop offset="0%" stop-color="#04211f"/>
      <stop offset="100%" stop-color="#04161c"/>
    </linearGradient>
  </defs>
  <rect width="192" height="192" rx="36" fill="url(#bg)"/>
  <g transform="translate(48,48) scale(4)" fill="none" stroke="#e9c97f" stroke-width="1.7" stroke-linecap="round" stroke-linejoin="round">
    <path d="M12 3c2.5 2 4 4.6 4 7.5 0 .5 0 1-.1 1.5"/>
    <path d="M4 21h16M6 21v-2a6 6 0 0 1 12 0v2"/>
    <path d="M9 9.2A6 6 0 0 0 8 13v6M16 13v6"/>
    <path d="M19.5 7.2a2.6 2.6 0 0 1-3 .2 2.7 2.7 0 0 1 2.3-4.6 3.8 3.8 0 0 0 .7 4.4Z"/>
  </g>
</svg>
